<svg id="Calque_1" data-name="Calque 1" xmlns="http://www.w3.org/2000/svg" viewBox="0 0 305.55 383.3"><path d="M820.6,624.87l-3.8-1.4a23.4,23.4,0,0,1-15.69-21.59c0-1.25,0-2.5,0-3.74q0-165.22.11-330.43a31.94,31.94,0,0,1,2.7-13.32c4-8.3,11.22-12.55,20.47-12.72,10.47-.19,21-.06,31.43-.06h226c12.52,0,21.9,7.34,24.3,19a31,31,0,0,1,.46,6.32q0,135.84.06,271.67a25.51,25.51,0,0,1-7.79,19.13c-6.47,6.41-12.86,12.9-19.29,19.35-.35.35-.69.72-1.07,1-2.69,2.34-5.82,2.46-8.06.32s-2.4-5.6.23-8.31c6.44-6.61,13-13.1,19.51-19.65.94-.95,1.82-2,3.22-3.47-1.81-.12-3-.27-4.12-.27q-27.13,0-54.27,0c-5.3,0-5.82.52-5.82,5.76q0,27.33,0,54.64c0,1.08.12,2.17.22,3.91,1.24-1,2.09-1.63,2.82-2.36,5.83-5.82,11.62-11.67,17.44-17.49,3.54-3.54,6.8-4,9.37-1.33s2.11,5.7-1.3,9.13c-6.06,6.12-11.85,12.54-18.34,18.16-3.72,3.24-8.59,5.16-12.94,7.68H896.2c0-.12,0-.3-.11-.35-2.62-1.83-4-4.23-2.75-7.37s4.07-3.55,7.13-3.54q31.42.07,62.86,0h54.61v-4.73q0-28.24,0-56.5c0-11.49,5.43-16.86,17-16.87h60.22c.07-1.56.19-2.87.19-4.18q0-132.08,0-264.16c0-9.76-4.64-14.36-14.49-14.36h-254c-9.86,0-14.5,4.59-14.5,14.35V599.45c0,9.5,4.72,14.18,14.29,14.18,14.22,0,28.43,0,42.65,0,3.15,0,6.1.18,7.47,3.61s-.65,5.61-3,7.65Z" transform="translate(-801.09 -241.57)"/><path d="M911.54,362.31c15.84,3.45,17.31,16.88,18.06,30,.72.45.82.57.93.58,9.09.85,9.09.85,9.09-8.18,0-14,0-27.94,0-41.91,0-2.87.78-5.17,3.61-6.35a5.42,5.42,0,0,1,7.57,5.15c.11,17,.21,33.93-.09,50.89-.11,6.64-5.86,11.6-12.76,11.7-10.35.15-20.7.06-31.06.06q-32.18,0-64.36,0c-10.23,0-15.17-4.94-15.17-15.11q0-53,0-105.9c0-9.74,5-14.83,14.68-14.84q47.15,0,94.3,0c9.43,0,14.51,5.16,14.52,14.62q0,15.35,0,30.68c0,4.66-2.07,7.28-5.63,7.27s-5.58-2.62-5.58-7.31c0-10-.1-20,0-29.94,0-3-.85-4.17-4-4.16q-46.59.13-93.17,0c-3.22,0-4,1.21-4,4.2q.12,52.58,0,105.15c0,3,.84,4.44,4,4.14,1.83-.18,3.69,0,6.13,0,.56-14,2.3-27.21,19.43-31-6.57-7.81-8.14-17-11.3-25.55-3-8.31-3.87-16.16-2.16-24.35,3.11-14.92,19.37-24.31,35.08-20.83a40,40,0,0,0,8.08,1.24c15.15.12,24.25,7.75,25.85,22.73.75,7,1.41,14.13-2.5,20.76-1.07,1.81-.55,4.49-1.35,6.54C917.23,349.12,914.39,355.55,911.54,362.31Zm-51.67,30.38h58.48c-.07-.81-.12-1.31-.17-1.8-1.63-16.29-1.58-14.72-15.74-20.13-1.56-.59-3.51-.25-5.27-.17-4.3.22-8.84,1.54-12.82.56a18.37,18.37,0,0,0-13.47,1.44c-1.22.61-2.54,1-3.81,1.52a9.14,9.14,0,0,0-5.92,7.55C860.6,385.22,860.3,388.82,859.87,392.69ZM893.64,329c-6.76,5.38-15.47,7.33-24.71,8.69,1.69,9,5.09,16.78,13.32,21.11a16.6,16.6,0,0,0,9.68,1.48c9-1.44,17.76-14,17-22.18Zm-28-2.51c8.55-.77,16.94-1.86,23.35-8.68,3.58-3.8,7.66-3.7,11.3.16,1.2,1.27,2.13,2.87,3.51,3.85,2.59,1.84,5.42,3.33,8.15,5l1.16-1c-.42-4.3-.48-8.67-1.36-12.88-1.18-5.67-5.87-8.84-11.67-9.11a88,88,0,0,1-12.54-1.43C872.59,299.42,861.37,311.46,865.64,326.46Z" transform="translate(-801.09 -241.57)"/><path d="M995,428.75h58.36a17,17,0,0,1,3.72.16,5.26,5.26,0,0,1,4.48,5.25c.09,3-1.59,4.94-4.46,5.65a15.86,15.86,0,0,1-3.72.16H936.66a17.89,17.89,0,0,1-3.36-.09c-3.09-.6-4.92-2.51-4.83-5.7.07-3,1.89-4.79,4.81-5.33a18.79,18.79,0,0,1,3.36-.1Z" transform="translate(-801.09 -241.57)"/><path d="M910.78,466.18H854.31a15.84,15.84,0,0,1-3.72-.16c-2.87-.71-4.56-2.62-4.47-5.64a5.27,5.27,0,0,1,4.46-5.26,14.35,14.35,0,0,1,3.35-.16H968a14.92,14.92,0,0,1,3.35.15,5.57,5.57,0,0,1,0,10.91,15.89,15.89,0,0,1-3.72.16Z" transform="translate(-801.09 -241.57)"/><path d="M1000,268.39a28.54,28.54,0,0,1,15.08,4.44c3.58,2.18,4.67,5.14,3.06,8.07s-4.91,3.67-8.75,1.63c-12.51-6.66-26.33-1-29.65,12.22-3.5,13.88,9.12,27.16,23,23.93,2.74-.63,5.34-2.51,7.61-4.32,3.3-2.63,6.14-3.07,8.61-.64s2.16,5.62-.57,8.63c-9.68,10.67-28.12,10.81-39.94.29a31,31,0,0,1-8.52-34.11C974.51,276.3,985.93,268.42,1000,268.39Z" transform="translate(-801.09 -241.57)"/><path d="M1057.14,309.62c4-12.08,7.64-23,11.29-34a26,26,0,0,1,1.56-4.2,5.21,5.21,0,0,1,6.67-2.65,5.16,5.16,0,0,1,3.71,5.79,9.5,9.5,0,0,1-.5,2.17q-8,24.11-16,48.19c-.12.35-.24.7-.38,1.05a6.52,6.52,0,0,1-6.31,4.46,6.3,6.3,0,0,1-6.32-4.41q-8.78-25-17.42-50.06a5.57,5.57,0,0,1,3.39-7.31c3.16-1,6,.42,7.32,4,3.87,10.91,7.61,21.86,11.42,32.79C1056,306.5,1056.35,307.52,1057.14,309.62Z" transform="translate(-801.09 -241.57)"/><path d="M934,527.56c-15.59,0-31.17.05-46.76-.07-1.87,0-4.3-.39-5.45-1.58s-2.11-4-1.53-5.55c.65-1.69,2.93-3.34,4.81-3.84,2.44-.66,5.19-.19,7.81-.19h86.41c1,0,2,0,3,0,3.53.18,5.87,2.33,6,5.43s-2.32,5.7-6,5.75c-6.85.1-13.71,0-20.57,0Z" transform="translate(-801.09 -241.57)"/><path d="M934,542.53h46.38a15,15,0,0,1,3.36.15,5.31,5.31,0,0,1,4.48,5.26c.09,3-1.59,4.93-4.46,5.64a15.86,15.86,0,0,1-3.72.17H888a18.75,18.75,0,0,1-3.36-.09c-3.09-.6-4.92-2.51-4.84-5.69.07-3,1.89-4.8,4.81-5.35a18.8,18.8,0,0,1,3.36-.09Z" transform="translate(-801.09 -241.57)"/><path d="M934,568.73c15.59,0,31.18-.05,46.76.06,1.88,0,4.31.39,5.46,1.58s2.09,4,1.51,5.55c-.65,1.7-2.92,3.21-4.81,3.86s-4.19.17-6.31.17H888.72c-1,0-2,0-3,0-3.52-.19-5.87-2.34-6-5.44s2.33-5.7,6-5.74c7.36-.1,14.71,0,22.07,0Z" transform="translate(-801.09 -241.57)"/><path d="M1015.23,392.07q-20,0-40,0c-4.73,0-7.23-2-7.21-5.64s2.51-5.57,7.27-5.57q39.84,0,79.66,0c4.64,0,7.33,2.11,7.31,5.63s-2.71,5.58-7.37,5.58Q1035.06,392.09,1015.23,392.07Z" transform="translate(-801.09 -241.57)"/><path d="M1026.06,455c9.47,0,18.94,0,28.41,0,4.57,0,7.24,2.21,7.13,5.76s-2.67,5.45-7.07,5.46q-28.23,0-56.45,0c-4.64,0-7.18-2.11-7.09-5.77.09-3.49,2.56-5.43,7-5.44C1007.37,454.93,1016.71,455,1026.06,455Z" transform="translate(-801.09 -241.57)"/><path d="M879.74,428.75c8.85,0,17.7,0,26.55,0,4.44,0,7,2,7.1,5.42s-2.55,5.78-7.11,5.79q-26.55,0-53.1,0c-4.55,0-7.22-2.23-7.1-5.8s2.67-5.4,7.11-5.41C862,428.73,870.89,428.75,879.74,428.75Z" transform="translate(-801.09 -241.57)"/><path d="M1001,365.87c-8.73,0-17.45,0-26.17,0-4.38,0-6.85-2.12-6.82-5.65s2.48-5.55,6.92-5.56q26.36,0,52.71,0c4.31,0,6.95,2.23,6.91,5.65s-2.66,5.55-7,5.56C1018.68,365.89,1009.84,365.87,1001,365.87Z" transform="translate(-801.09 -241.57)"/><path d="M917.13,490.13c8.47,0,16.94,0,25.41,0,4.64,0,7.19,2.11,7.09,5.76-.1,3.48-2.57,5.44-7,5.45q-25.41,0-50.82,0c-4.64,0-7.17-2.11-7.08-5.77.09-3.48,2.55-5.43,7-5.44C900.19,490.11,908.66,490.13,917.13,490.13Z" transform="translate(-801.09 -241.57)"/><path d="M855.47,527.54c-1.25,0-2.5.08-3.74,0-3.41-.25-5.72-2.62-5.65-5.72a5.55,5.55,0,0,1,5.54-5.43,80.3,80.3,0,0,1,8.21,0,5.58,5.58,0,1,1,.11,11.15C858.46,527.63,857,527.54,855.47,527.54Z" transform="translate(-801.09 -241.57)"/><path d="M855.59,553.7a30.28,30.28,0,0,1-4.47,0c-3.11-.45-5-2.36-5-5.52a5.13,5.13,0,0,1,5-5.5,58.13,58.13,0,0,1,9,0,5.52,5.52,0,0,1,5.42,5.55,5.61,5.61,0,0,1-5.42,5.57c-1.48.13-3,0-4.48,0Z" transform="translate(-801.09 -241.57)"/><path d="M855.59,579.9a30.28,30.28,0,0,1-4.47,0c-3.11-.45-5-2.36-5-5.53a5.13,5.13,0,0,1,5-5.49,59.41,59.41,0,0,1,9-.06,5.53,5.53,0,0,1,5.42,5.56,5.61,5.61,0,0,1-5.42,5.57c-1.48.12-3,0-4.48,0Z" transform="translate(-801.09 -241.57)"/></svg>