<svg id="Calque_1" data-name="Calque 1" xmlns="http://www.w3.org/2000/svg" viewBox="0 0 317.27 315.72"><path d="M3391.19,144.58a26.2,26.2,0,0,1,4.85-.24h101.67v11.23H3396.22a25.93,25.93,0,0,1-5.21-.32c-2.8-.59-4.18-2.55-4.18-5.41A5,5,0,0,1,3391.19,144.58Zm-83.54,123.7c2.87-7.18,5.88-14.31,8.68-21.52a4.78,4.78,0,0,0,0-3.71,20.35,20.35,0,0,1,9-29.93,3.31,3.31,0,0,0,1.8-2.3c.09-9.6.09-19.21.09-28.91-5.43-1.12-9-3.93-9.13-9.51-.18-6.24-.14-12.5,0-18.75.12-5.11,3.58-9,8.58-9.11,13.09-.24,26.19-.19,39.29-.08a3.11,3.11,0,0,1,.61,0,5.14,5.14,0,0,1,4.83,5.44c0,3.12-1.94,5.22-5.33,5.61a31.6,31.6,0,0,1-3.37.09h-29.19c-1.35,0-2.67.13-4,.19v14.28h168.2v11.55l-67.13,0c-6.24,0-12.48-.08-18.71.07-1.08,0-2.93.89-3.08,1.63-2.26,11.62-4.3,23.29-6.5,35.55h95.42v11.24h-97.42c-1.35,7.24-2.65,14.38-4,21.83h101.42v11.77H3452.9v41.58h44.8V317h-83v35c0,4.35-2.24,7-5.63,6.91s-5.57-2.71-5.57-7.06V317h-18.7v73.37h18.71c0-3.42-.1-6.63,0-9.85.11-4,2.39-6.43,5.83-6.32,3.27.1,5.28,2.43,5.36,6.34v10.05h83v11.22H3431v46.64h66.73V460H3367.62c-11.38,0-16-4.67-16-16.2v-42h-12.89c-9.9-.05-15-5.1-15-15V320.46c0-9.73,5-14.81,14.71-14.88,9.94-.05,19.94,0,29.94,0,1.33,0,2.66-.12,4.19-.19.06-1.38.15-2.48.15-3.58,0-11.75,0-23.5,0-35.25,0-7,3.44-11.55,9.84-13.89a5.07,5.07,0,0,0,2.65-3.26c3.07-16.19,6-32.41,8.9-48.62,1.12-6.22,2.18-12.45,3.3-18.83h-59c0,9.82-.07,19.41.12,29,0,.88,1.51,2,2.57,2.57,11,5.47,14.77,17.93,8.87,28.65a6.77,6.77,0,0,0-.4,5c2.75,7.37,5.9,14.57,8.75,21.89,4.15,10.68-2.35,20.32-13.73,20.41-7.61.06-15.22,0-22.83,0C3309.45,289.43,3303,279.8,3307.65,268.28Zm133.61,37v-41.8c-5.7,0-11.4-.06-17.09.09-.59,0-1.64,1.22-1.64,1.88-.07,13.21-.07,26.42-.07,39.85Zm-36.32,143.24h14.3V402l-14.3,0ZM3373.1,316.78h-9c-8.3,0-16.65.09-25,0-3-.05-4.13.95-4.13,4.08.07,22,0,43.93,0,65.93,0,2.3.42,3.84,3.22,3.84,11.21-.06,22.43-.06,33.64-.06a7.47,7.47,0,0,0,1.3-.39Zm1.83,84.94c-2.74,0-5.59.14-8.23,0s-3.8.68-3.8,3.58c.09,13.24,0,26.48,0,39.72-.06,2.14.31,3.69,2.94,3.69,8.73-.08,17.46-.08,26.18-.08a4.73,4.73,0,0,0,1.2-.46l0-46.45Zm12.62-138.29c-2.5,0-3.57,1-3.57,3.56.07,11.72,0,23.45.14,35.17,0,1.12,1.55,3.18,2.43,3.18,8,.25,16.11.15,24.64.15v0c0-13.64,0-26.6,0-39.53,0-2-.95-2.5-2.76-2.5Q3398,263.52,3387.55,263.43ZM3333,223a8.84,8.84,0,1,0,8.4,9.25A8.83,8.83,0,0,0,3333,223Zm-12,55.26q11.94.15,23.88,0c3.11,0,4.25-1.73,3.11-4.73-2.91-7.41-5.91-14.76-8.91-22.15v0c-3.85,0-7.17-.14-10.48.09a3.14,3.14,0,0,0-2.4,1.45q-4.41,10.29-8.45,20.73C3316.62,276.47,3317.82,278.21,3321,278.21Z" transform="translate(-3306.15 -144.31)"/><path d="M3497.71,419.67h-26.2c-1.24,0-2.84-.37-3.66.24-1.73,1.32-4.09,3.08-4.24,4.83s1.75,4,3.3,5.51c.87.83,2.85.63,4.32.64h26.48Z" transform="translate(-3306.15 -144.31)"/><path d="M3443.05,353.5c-.06,3.5,2.54,5.72,7.16,5.73h47.5V348h-47.66C3445.64,348,3443.11,350,3443.05,353.5Z" transform="translate(-3306.15 -144.31)"/><path d="M3558.69,182.3c-2.29-1.91-5.25-1.7-8.07.71q-3.78,3.27-7.54,6.59v13.14l13-11.39c.67-.58,1.34-1.15,2-1.75C3560.8,187,3561,184.21,3558.69,182.3Zm64.37,169c-2-6.46-4.79-12.68-7.41-18.94a5.41,5.41,0,0,0-7-3,4.42,4.42,0,0,0-2.86,6.12c1.3,3.41,2.32,6.93,4.12,10.13,3.35,5.95,3.35,11.5-.2,17.48-2.84,4.79-4.62,10.07-6.89,15.12-.4.88-.89,1.73-1.77,3.44-7.1-36.66-14-72.43-20.94-108.2a12.3,12.3,0,0,1,2,3.47q7.17,17.87,14.42,35.7c1.82,4.52,4.17,6,7.67,4.94,3.31-1,4.05-3.66,2.24-8.12q-17.55-43.69-35.32-87.28a5.9,5.9,0,0,1,.64-6q14.6-22.82,29.11-45.67c3.93-6.2,2.37-11.81-4.39-15.71-6.13-3.55-12.37-6.94-18.56-10.41l-34.82.05v21.8q6.14-5.37,12.32-10.71a8.9,8.9,0,0,1,4.81-1.78c3.76-.27,7.64.15,11.27-.14s6.22,1.07,9.16,3.29c-3.88,3.35-7.57,6.56-11.32,9.79-2.16,1.9-2.75,4-.94,6.38s5.57,2.53,8.45.06c4.23-3.67,8.33-7.47,12.33-11.08,3.15.85,3.71,2.07,2.31,4.27-9.8,15.28-19.51,30.62-29.31,45.89a3.79,3.79,0,0,1-2.44,1.76c-5.54.08-11.09.09-16.64.09v9.46h16.6a75,75,0,0,0,1.53,7.5c.6,2-.07,3.18-1.65,4.55q-8.28,7.13-16.48,14.34V263c6.81-5.94,13.59-12.08,20.74-18.36,1.51,7.82,3,14.95,4.22,22.17a3.86,3.86,0,0,1-1.46,2.83q-11.73,10.37-23.5,20.68v14.77l27.71-24.3h0c1.24,6.41,2.69,13.64,4,20.89a2.76,2.76,0,0,1-.86,2.14c-3.74,3.51-7.6,6.94-11.62,10.57-5.91-5.2-12.88-4.56-19.3-4.38v9.16h6.4c3.93,0,6.24,1.61,6.36,4.42s-2.35,4.79-6.35,4.79l-6.41,0v15.68q2.67-2.34,5.36-4.66a10.91,10.91,0,0,1,4.86-2c6.59-1.29,11.1-4.63,12.47-10.35a12.4,12.4,0,0,1,4.52-6.95c2.19-1.83,4.19-3.86,6.89-6.33,1.28,6.58,1.85,12.43,3.67,18,1.91,5.77-.33,9.3-5,13.18-11.16,9.27-21.9,18.94-32.74,28.5l-3.39,3a16.39,16.39,0,0,0-2.37,2.26,3.88,3.88,0,0,0,.51,5.65,5.24,5.24,0,0,0,5.25,1.31,5.37,5.37,0,0,0,1.13-.49,15.86,15.86,0,0,0,2.9-2.21q17.05-14.89,34-29.86a18.37,18.37,0,0,0,2.15-2.77l1.12.66c1.32,7,2.5,14,4.14,20.87.68,2.89-.2,4.63-2.52,6.64q-21.53,18.7-42.94,37.54v14l48.49-42.5c1.44,7.72,3.28,15.56,4.12,23.48.25,2.29-1.75,5.49-3.84,7.14-12.66,10.23-25.61,20.16-38.5,30.15a10.5,10.5,0,0,1-10.27,1.69v9.63a22.36,22.36,0,0,0,17.63-4.69c12-9.36,23.83-18.94,36-28,8-5.92,11.35-12.83,8.82-21.77a14.28,14.28,0,0,1,1.06-10.39q8.22-17.5,15.68-35.24A12.93,12.93,0,0,0,3623.06,351.3Z" transform="translate(-3306.15 -144.31)"/><path d="M3503.33,144.32h0a5.62,5.62,0,0,1,5.62,5.62v39.39a0,0,0,0,1,0,0h-5.62a5.62,5.62,0,0,1-5.62-5.62V149.94A5.62,5.62,0,0,1,3503.33,144.32Z" transform="translate(3700.51 189.34) rotate(-180)"/><path d="M3503.33,204.75H3509a0,0,0,0,1,0,0V454.41a5.62,5.62,0,0,1-5.62,5.62h0a5.62,5.62,0,0,1-5.62-5.62v-244a5.62,5.62,0,0,1,5.62-5.62Z" transform="translate(3700.51 520.47) rotate(180)"/><path d="M3537.39,144.31h.13a5.55,5.55,0,0,1,5.55,5.55V388.09a5.55,5.55,0,0,1-5.55,5.55h-5.69a0,0,0,0,1,0,0V149.86A5.55,5.55,0,0,1,3537.39,144.31Z" transform="translate(3768.76 393.64) rotate(180)"/><path d="M3537.43,409h.05a5.6,5.6,0,0,1,5.6,5.6v44.28s0,.83,0,.83h0c-7.69-1.38-11.24-6.2-11.24-9.29V414.61A5.6,5.6,0,0,1,3537.43,409Z" transform="translate(-3306.15 -144.31)"/></svg>