<svg id="Calque_1" data-name="Calque 1" xmlns="http://www.w3.org/2000/svg" viewBox="0 0 408.7 408.68"><defs><style>.cls-1{stroke:#fff;stroke-miterlimit:10;}</style></defs><path d="M0,192.3c1-7.73,1.8-15.51,3.14-23.19,8.21-47.06,30.48-86.36,66.07-118C99.93,23.74,135.84,7,176.65,1.87c63.54-7.94,119.58,9.39,166.83,52.86,35.64,32.77,57.1,73.56,63.27,121.61,8.16,63.52-9.3,119.55-52.65,166.89C324,376.11,286.61,396.59,242.77,405c-7.42,1.43-15,2-22.51,3-1.3.17-2.59.47-3.88.71h-24c-5.39-.65-10.8-1.19-16.17-1.95C135.94,401,100.31,384.93,69.81,358,33.88,326.27,11.4,286.79,3.14,239.45,1.8,231.77,1,224,0,216.25ZM204.3,395.9C310.1,396,395.93,310.24,396,204.37S310.36,12.74,204.5,12.65,12.86,98.33,12.78,204.18,98.45,395.81,204.3,395.9Z"/><path d="M211.39,25.66c34.34.93,68.29,12.46,98.68,34.4,4.2,3,8.13,6.45,12.13,9.75s4.59,6.86,2,10-6.13,3.14-9.88,0A177.09,177.09,0,0,0,280,56.53a166,166,0,0,0-87.56-17.82C163.56,40.64,137.11,49.9,113,65.8a164.28,164.28,0,0,0-56.15,62.52,161.47,161.47,0,0,0-18,87.87,165,165,0,0,0,30.6,84.74c1.77,2.49,3.69,4.88,5.43,7.39,2.56,3.71,2.25,7.27-.74,9.56s-6.75,1.75-9.35-1.93C59.11,307.8,53,299.8,48.22,291.13c-15.91-28.6-23.23-59.44-22.6-92.19,1.4-73,51.32-140.83,120.69-163.88A182.11,182.11,0,0,1,211.39,25.66Z"/><path d="M210.64,383.24c-47.38-1.24-81.35-12.73-111.77-34.65-4.31-3.11-8.34-6.6-12.44-10-3.72-3.09-4.35-6.64-1.88-9.7s5.93-3,9.9-.25c10.77,7.51,21.08,15.88,32.53,22.17,27.94,15.37,58.2,21.36,90,18.93,39.53-3,73.76-18.32,102.35-45.72,28.06-26.89,44.8-59.81,49.62-98.4,5.54-44.34-5.26-84.62-31.65-120.7-1.18-1.61-2.42-3.18-3.53-4.83-2.49-3.71-2.09-7.3,1-9.51s6.44-1.56,9.09,1.82c3.11,4,6.2,8,9,12.21q31.55,47.83,30.34,105.18c-1.41,73-51.46,140.76-120.87,163.77C242.29,380.21,221.81,383.42,210.64,383.24Z"/><path class="cls-1" d="M221.74,172.63c5.33-2.2,10.27-4.94,15.56-6.3,32.91-8.48,61.1,11,64.73,44.83,1,9.08.85,18.31.92,27.47.14,17.16.05,34.32,0,51.47,0,6.83-2,8.81-8.75,8.82q-17.36,0-34.71,0c-6.76,0-8.73-2-8.74-8.84,0-19.41.07-38.83-.06-58.25a63.76,63.76,0,0,0-1.24-12.65c-1.69-8-5.87-11.12-13.34-10.7-6.91.39-13.07,5.88-13.93,12.62a64.09,64.09,0,0,0-.37,8q0,30.13,0,60.25c0,7.88-1.76,9.61-9.64,9.62-11.44,0-22.88,0-34.32,0-6.21,0-8.35-2.18-8.36-8.43q0-57.46,0-114.92c0-6.24,2.16-8.4,8.37-8.41,11.71,0,23.41.06,35.12,0C217.4,167.07,220.89,168.1,221.74,172.63Zm-39.17,7.42V285.93H209c0-1.93,0-3.63,0-5.33.11-19.81-.12-39.64.48-59.45.32-10.51,6.23-18.36,15.67-22.81,9.26-4.37,18.69-4,27.2,2.14,7.48,5.4,10.36,13.52,10.59,22.26.5,19.54.42,39.1.57,58.65,0,1.52,0,3,0,4.49h26.51c.06-1,.15-1.82.15-2.61,0-19.55.05-39.11,0-58.66a87.49,87.49,0,0,0-.9-12.32c-1.67-11.39-5.71-21.63-15.52-28.58-16.4-11.62-39.4-7.82-51.67,8.45-2.18,2.88-4.49,5.55-8.58,4.19s-4.55-4.77-4.47-8.43c.05-2.59,0-5.18,0-7.87Z"/><path class="cls-1" d="M108,232.64q0-28.33,0-56.67c0-6.78,2-8.81,8.78-8.82q17.57,0,35.12,0c6.24,0,8.41,2.09,8.42,8.39q.06,57.47,0,114.94c0,6.29-2.2,8.41-8.4,8.43q-17.76,0-35.52,0c-6.22,0-8.39-2.18-8.39-8.41Q108,261.58,108,232.64ZM147.23,286V180.12H121V286Z"/><path class="cls-1" d="M135.81,163.39c-12,.92-22.64-4.86-27.57-15a27.31,27.31,0,0,1,4.42-29.73c7.31-8.16,21.3-11.16,32.82-7,10.27,3.68,17.14,13.44,17.47,24.81.38,13.41-10.43,25.52-24,26.8C137.94,163.29,136.87,163.32,135.81,163.39Zm-1.61-12.6c9.45-.09,16.06-5.92,16-14.11-.1-8.53-6.43-14.22-15.82-14.2-9.56,0-16,6-15.89,14.54C118.6,145.31,125,150.87,134.2,150.79Z"/></svg>