<svg id="Calque_1" data-name="Calque 1" xmlns="http://www.w3.org/2000/svg" viewBox="0 0 408.7 408.68"><path d="M0,192.3c1-7.73,1.8-15.51,3.14-23.19,8.21-47.06,30.48-86.36,66.07-118C99.93,23.74,135.84,7,176.65,1.87c63.54-7.94,119.58,9.39,166.83,52.86,35.64,32.77,57.1,73.56,63.27,121.61,8.16,63.52-9.3,119.55-52.65,166.89C324,376.11,286.61,396.59,242.77,405c-7.42,1.43-15,2-22.51,3-1.3.17-2.59.47-3.88.71h-24c-5.39-.65-10.8-1.19-16.17-1.95C135.94,401,100.31,384.93,69.81,358,33.88,326.27,11.4,286.79,3.14,239.45,1.8,231.77,1,224,0,216.25ZM204.3,395.9C310.1,396,395.93,310.24,396,204.37S310.36,12.74,204.5,12.65,12.86,98.33,12.78,204.18,98.45,395.81,204.3,395.9Z"/><path d="M211.39,25.66c34.34.93,68.29,12.46,98.68,34.4,4.2,3,8.13,6.45,12.13,9.75s4.59,6.86,2,10-6.13,3.14-9.88,0A177.09,177.09,0,0,0,280,56.53a166,166,0,0,0-87.56-17.82C163.56,40.64,137.11,49.9,113,65.8a164.28,164.28,0,0,0-56.15,62.52,161.47,161.47,0,0,0-18,87.87,165,165,0,0,0,30.6,84.74c1.77,2.49,3.69,4.88,5.43,7.39,2.56,3.71,2.25,7.27-.74,9.56s-6.75,1.75-9.35-1.93C59.11,307.8,53,299.8,48.22,291.13c-15.91-28.6-23.23-59.44-22.6-92.19,1.4-73,51.32-140.83,120.69-163.88A182.11,182.11,0,0,1,211.39,25.66Z"/><path d="M210.64,383.24c-47.38-1.24-81.35-12.73-111.77-34.65-4.31-3.11-8.34-6.6-12.44-10-3.72-3.09-4.35-6.64-1.88-9.7s5.93-3,9.9-.25c10.77,7.51,21.08,15.88,32.53,22.17,27.94,15.37,58.2,21.36,90,18.93,39.53-3,73.76-18.32,102.35-45.72,28.06-26.89,44.8-59.81,49.62-98.4,5.54-44.34-5.26-84.62-31.65-120.7-1.18-1.61-2.42-3.18-3.53-4.83-2.49-3.71-2.09-7.3,1-9.51s6.44-1.56,9.09,1.82c3.11,4,6.2,8,9,12.21q31.55,47.83,30.34,105.18c-1.41,73-51.46,140.76-120.87,163.77C242.29,380.21,221.81,383.42,210.64,383.24Z"/><path d="M108.23,138.31c.9-2,2.52-2.61,4.65-2.61,60.3,0,122.6,0,182.89,0,3.53,0,4.7,1.15,4.7,4.66V268.3c0,3.5-1.17,4.65-4.7,4.65-60.29,0-122.59,0-182.89,0-2.14,0-3.74-.61-4.65-2.62Zm183.63,10.42c0-.21-.06.69-.07.42a21.65,21.65,0,0,1-1.53,1.64c-27.32,27.33-53.65,55.66-81,83-.39.39-.77.8-1.18,1.18a6,6,0,0,1-7.56-.06c-.41-.38-.79-.79-1.19-1.18l-82.24-82.23c-.53-.53-1.51-.53.19-.77V258.62c.18.12-.64.24-.45.36.43-.6-.22-1.28.29-1.8q20.61-20.64,41.24-41.25a13,13,0,0,1,1.81-1.59c1.39-1,4.08.19,5.25,1.31s2.4,3.94,1.37,5.39a13.56,13.56,0,0,1-1.6,1.79c-13.79,13.8-25.58,26.59-39.37,40.39-.49.49-1.27,1-.49-.35h160.8c.2.2-2.38,1.34-2.29,1.19a10.59,10.59,0,0,1-1.17-1c-13.76-13.74-25.51-26.49-39.26-40.24a14.22,14.22,0,0,1-1.59-1.8c-1-1.4.21-4.09,1.35-5.26s3.87-2.37,5.24-1.45a12.35,12.35,0,0,1,1.81,1.59l41.52,41.5c.48.48-.95.81-.23,1.48C291.53,221.59,291.86,185.53,291.86,148.73Zm-87.68,75.46c27.49-27.49,50.85-51.06,78.22-78.43H125.27C152.85,173.35,176.92,196.94,204.18,224.19Z"/></svg>