<svg xmlns="http://www.w3.org/2000/svg" viewBox="0 0 409.08 408.84"><defs><style>.cls-1{fill:#fff;}</style></defs><g id="Calque_2" data-name="Calque 2"><g id="Calque_1-2" data-name="Calque 1"><path class="cls-1" d="M249.21,205c-1.25,1-2.34,1.72-3.3,2.61q-36.76,33.72-73.48,67.49a13.25,13.25,0,0,0-3.58,4.63,5.24,5.24,0,0,0,2.34,6.58c3.57,2.27,6.26.45,8.87-1.94q39.81-36.58,79.65-73.16c5.73-5.27,5.71-7.73,0-13L180.3,125.31c-4.82-4.43-8.1-5-11-1.76-2.68,3-1.85,6.28,2.73,10.48l73.5,67.48C246.64,202.49,247.67,203.5,249.21,205Z"/><path d="M215.81,0c9.33,1.31,18.7,2.37,28,4,6.78,1.2,13.46,3.07,20.14,4.8,4.46,1.16,6.4,4.2,5.34,7.85-1,3.32-4.25,4.92-8.46,3.68a191,191,0,0,0-62.63-8.19C143.33,14.5,97.31,36.08,60.63,76.91a184.87,184.87,0,0,0-46.5,100.56C8.33,220,15.55,260.39,36.62,298c22.06,39.37,54.35,67.34,95.87,84.78,4.52,1.9,9.24,3.34,13.84,5.08,4.39,1.67,6.07,4.63,4.78,8.19-1.19,3.3-4.49,4.55-8.64,3.14-58.71-20-101.29-58.1-126-115C-18.85,203,4.11,106.8,71.44,49.37,104.1,21.52,141.77,5.52,184.38.94c2.76-.29,5.51-.62,8.27-.94Z"/><path d="M409.08,216.39c-1,7.74-1.8,15.52-3.14,23.21-8.28,47.35-30.77,86.84-66.71,118.57-30.53,26.95-66.18,43.06-106.51,48.73a206.21,206.21,0,0,1-65.54-1.48c-4.33-.78-6.54-3.5-6-7s3.26-5.19,7.83-4.82c13.36,1.09,26.75,3.22,40.1,3.05,83.61-1.06,158.87-59.18,180.66-139.92,16.53-61.24,5.54-117.83-32.16-168.83-17.67-23.9-40.32-42.25-67-55.5-2.14-1.06-4.33-2.05-6.43-3.19-3.73-2-5-5.42-3.38-8.57s4.95-4.09,8.64-2.15c8.7,4.58,17.58,8.91,25.82,14.22,32.69,21,57.36,49.24,74.12,84.27a200.82,200.82,0,0,1,19,70.84c.15,1.83.5,3.64.75,5.46Z"/><path d="M249.21,205c-1.54-1.47-2.57-2.48-3.63-3.46L172.08,134c-4.58-4.2-5.41-7.47-2.73-10.48,2.85-3.2,6.13-2.67,11,1.76l79.38,72.87c5.74,5.27,5.76,7.73,0,13q-39.81,36.6-79.65,73.16c-2.61,2.39-5.3,4.21-8.87,1.94a5.24,5.24,0,0,1-2.34-6.58,13.25,13.25,0,0,1,3.58-4.63q36.7-33.8,73.48-67.49C246.87,206.69,248,206,249.21,205Z"/></g></g></svg>