<svg id="Calque_1" data-name="Calque 1" xmlns="http://www.w3.org/2000/svg" viewBox="0 0 408.7 408.68"><defs><style>.cls-1,.cls-2{stroke:#000;stroke-miterlimit:10;}.cls-1{stroke-width:4px;}.cls-2{stroke-width:2px;}</style></defs><path d="M.1,192.3c1-7.73,1.8-15.51,3.14-23.19,8.2-47.06,30.48-86.36,66.07-118C100,23.74,135.94,7,176.75,1.87c63.54-7.94,119.58,9.39,166.83,52.86,35.64,32.77,57.1,73.56,63.27,121.61,8.16,63.52-9.3,119.55-52.65,166.89-30.11,32.88-67.49,53.36-111.33,61.77-7.42,1.43-15,2-22.51,3-1.31.17-2.59.47-3.89.71H192.52c-5.39-.65-10.8-1.19-16.17-1.95C136,401,100.41,384.93,69.9,358,34,326.27,11.5,286.79,3.24,239.45,1.9,231.77,1.13,224,.1,216.25ZM204.4,395.9C310.2,396,396,310.24,396.12,204.37S310.45,12.74,204.6,12.65,13,98.33,12.88,204.18,98.54,395.81,204.4,395.9Z"/><path d="M211.49,25.66c34.34.93,68.29,12.46,98.68,34.4,4.2,3,8.13,6.45,12.13,9.75s4.59,6.86,1.95,10-6.12,3.14-9.87,0a177.4,177.4,0,0,0-34.25-23.22,166,166,0,0,0-87.56-17.82A161.53,161.53,0,0,0,113.14,65.8,164.28,164.28,0,0,0,57,128.32a161.47,161.47,0,0,0-18,87.87,165,165,0,0,0,30.6,84.74c1.77,2.49,3.69,4.88,5.42,7.39,2.57,3.71,2.25,7.27-.73,9.56s-6.76,1.75-9.35-1.93c-5.73-8.15-11.8-16.15-16.63-24.82-15.9-28.6-23.22-59.44-22.59-92.19,1.4-73,51.32-140.83,120.69-163.88A182.11,182.11,0,0,1,211.49,25.66Z"/><path d="M210.73,383.24C163.35,382,129.38,370.51,99,348.59c-4.31-3.11-8.35-6.6-12.44-10-3.72-3.09-4.36-6.64-1.89-9.7s5.94-3,9.91-.25c10.76,7.51,21.08,15.88,32.53,22.17,27.94,15.37,58.2,21.36,90,18.93,39.53-3,73.75-18.32,102.34-45.72,28.07-26.89,44.8-59.81,49.62-98.4,5.54-44.34-5.25-84.62-31.65-120.7-1.17-1.61-2.41-3.18-3.52-4.83-2.49-3.71-2.09-7.3,1-9.51s6.44-1.56,9.08,1.82c3.12,4,6.21,8,9,12.21q31.54,47.83,30.34,105.18c-1.41,73-51.47,140.76-120.87,163.77C242.39,380.21,221.91,383.42,210.73,383.24Z"/><path class="cls-1" d="M160.23,309.13c-3.56-.92-7.06-1.9-10.07-4.2a22.27,22.27,0,0,1-9.07-18.75c0-11.12,0-22.24,0-33.36q0-65.07,0-130.13c0-9.74,4.2-17,13-21.1A21.86,21.86,0,0,1,163,99.66q41.44-.21,82.88-.06c12.45,0,21.77,9.7,21.89,22.47.07,6.89,0,13.78,0,20.67q0,71.61,0,143.23c0,9.83-4.29,17-13.14,21.27a42.73,42.73,0,0,1-6,1.89ZM148.06,147.92V260.73H260.83V147.92Zm112.71-7c0-7.36.07-14.57-.06-21.77a10.38,10.38,0,0,0-1.3-4.26c-3.06-6.05-8.17-8.58-14.82-8.56-18,0-36,0-54,0-8.86,0-17.73,0-26.59,0-9.86,0-16.05,6.31-16.07,16.15,0,5,0,10.08,0,15.13v3.28ZM148.14,267.8c0,7.39-.06,14.66.06,21.93a9.91,9.91,0,0,0,1.26,4.06c3.06,6,8.16,8.59,14.82,8.58,17.25-.05,34.5,0,51.75,0,9.61,0,19.23,0,28.84,0,9.87,0,16.06-6.3,16.09-16.13,0-4.57,0-9.14,0-13.71v-4.7Z"/><path class="cls-1" d="M204.44,127c-4.5,0-9,0-13.5,0-2.59,0-4.06-1.23-4.09-3.29s1.44-3.39,4-3.39q13.6,0,27.21,0c2.54,0,4,1.32,4,3.39S220.53,127,218,127C213.45,127.06,209,127,204.44,127Z"/><path class="cls-2" d="M204.53,295.15a10.15,10.15,0,1,1,10.06-10.28A10.31,10.31,0,0,1,204.53,295.15Zm0-13.45a3.31,3.31,0,1,0,3.24,3.41A3.27,3.27,0,0,0,204.5,281.7Z"/></svg>