<svg id="Calque_1" data-name="Calque 1" xmlns="http://www.w3.org/2000/svg" viewBox="0 0 314.2 383.34"><path d="M2802.05,684.56c-4.32-2.11-3.92-6.18-3.87-10.25-5.89-.34-8.49-4.12-10.34-9a172.2,172.2,0,0,0-7.06-16.88A57.69,57.69,0,0,1,2774.5,617a7.89,7.89,0,0,0-2.75-7.08,13.78,13.78,0,0,1-3.81-8.87c-.26-33.68-.17-67.37-.15-101.06,0-4.39,1.57-8.19,5.52-10.38,2.11-1.17,2.5-2.58,2.49-4.76-.08-20.09-.05-40.18-.05-60.27a31.35,31.35,0,0,1,.07-3.36,5.15,5.15,0,0,1,5.1-5,5.21,5.21,0,0,1,5.78,4.26,16.35,16.35,0,0,1,.27,4.09q0,29.37,0,58.76v4.2h33.7V359.56c0-5-.06-5.09-4.95-5.1-8.24,0-16.48.11-24.71,0-3.1-.06-4.13,1-4.09,4.1.14,12,.09,24,0,35.94,0,4.1-2.17,6.59-5.5,6.67a5.24,5.24,0,0,1-5.63-5.26c-.08-13.72-.15-27.45.11-41.17.08-4.39,2.76-7.79,6.69-9.72,2-1,2.58-2.23,2.55-4.32-.09-8.23-.08-16.47,0-24.71.07-9.6,5.26-14.67,14.91-14.69,3,0,6-.05,9,0,7.71.16,13.17,5.56,13.25,13.27.09,9.35,0,18.7,0,28.7H2832c12.9,0,20.44,7.53,20.45,20.48q.06,44.55,0,89.09c0,1.24.34,2.88-.3,3.65-1.37,1.66-3.23,3.91-5,4s-4-1.85-5.35-3.48c-.85-1-.56-3.11-.56-4.71q0-44.36,0-88.72c0-6.56-3-9.36-9.48-8.72v4q.07,62.89.1,125.78c0,2.47.54,4,2.83,5.36,3.74,2.21,5,5.95,5,10.24-.05,12.48,0,25,0,37.44,0,20.46-.08,40.92.05,61.38,0,5.2-1,9.59-5.62,12.67a3.54,3.54,0,0,0-1.11,2.84c1.79,14.62-2.85,27.77-9.05,40.61-1.78,3.7-3.26,7.54-4.73,11.38-1.69,4.43-4.41,7.48-9.71,7.74.15,4,.21,8-3.69,10.34ZM2828.2,568c-.44-.2-.66-.38-.88-.38-2.62-.06-5.24-.06-7.85-.13-4.31-.11-6.93-2.33-6.84-5.74s2.55-5.35,6.72-5.46c2.93-.08,5.87,0,8.81,0V545c-3.22,0-6.2.07-9.17,0-3.83-.13-6.27-2.28-6.36-5.45s2.43-5.59,6.45-5.72c3-.1,5.94,0,9,0V522.65c-3.32,0-6.32.11-9.3,0-3.77-.18-6.19-2.51-6.16-5.69s2.48-5.38,6.27-5.47c3.07-.08,6.15,0,9.25,0V499.11h-48.88v11.83c.49.21.71.39.93.39,2.62.05,5.24.06,7.86.11,4.31.08,6.61,1.89,6.76,5.29s-2.32,5.79-6.64,5.91c-2.94.09-5.89,0-8.88,0v10.63a3.91,3.91,0,0,0,1,.36c2.62.05,5.24,0,7.85.12,4.42.14,6.81,2.24,6.69,5.8-.11,3.39-2.46,5.31-6.72,5.4-2.93.06-5.86,0-8.8,0v10.77a3.91,3.91,0,0,0,1,.36c2.62,0,5.24,0,7.85.12,4.42.14,6.81,2.24,6.69,5.8-.11,3.38-2.46,5.31-6.72,5.4-2.93.06-5.86,0-8.84,0v10.84c3.1,0,6,0,8.81,0,4.33.07,6.83,2.22,6.76,5.76s-2.46,5.4-6.64,5.45c-3,0-5.9,0-8.9,0v12.33h48.91V589.51c-3.07,0-5.91,0-8.75,0-4.29,0-6.92-2.26-6.83-5.7s2.63-5.44,6.71-5.51c2.94,0,5.89,0,8.87,0Zm-39.4,70.36,7.72,18.43c2.86,6.83,3.1,7,10.31,6.13a2.88,2.88,0,0,0,2-1.1c3.33-7.71,6.56-15.46,9.91-23.46ZM2786,613.5v13.18h35.45V613.5Zm25.13-270.42c0-8.81,0-17.27,0-25.72,0-4.88,0-4.88-5-4.88-9.7,0-9.7,0-9.7,9.63v21Z" transform="translate(-2767.76 -301.23)"/><path d="M2908.38,684.56c-4.15-2.16-6.07-5.69-7.16-10.2-4.45-18.4-9.2-36.73-13.75-55.1a28,28,0,0,1-.79-6.64q-.06-146.14,0-292.3c0-12.51,6.61-19.06,19.21-19.07q9.36,0,18.72,0c11.22,0,18.21,7,18.22,18.22q0,87.76,0,175.53,0,28.63,0,57.26a15.34,15.34,0,0,1-.18,3.72c-.72,2.86-2.58,4.53-5.65,4.42s-4.79-1.91-5.3-4.82a21.16,21.16,0,0,1-.09-3.74q0-74.1,0-148.2v-4.77h-11.24v3.91q0,18,0,35.93c0,5.37-1.88,8-5.71,7.91s-5.52-2.57-5.52-8.07V398.77h-11v210.7h11V470.28c0-5.81,1.71-8.48,5.48-8.57s5.75,2.73,5.75,8.71V609.47h11.24c0-4.66,0-9.24,0-13.81s0-9,0-13.48c.06-3.9,2.11-6.19,5.44-6.26,3.49-.08,5.68,2.27,5.76,6.34.07,3.49-.17,7,.05,10.48a131.06,131.06,0,0,1-5.71,46.07c-3.45,11.56-6.11,23.37-8.83,35.14-1.06,4.62-2.93,8.34-7.19,10.61Zm22.92-297.39V354h-33.22v33.22Zm.26-44.89c0-8.23.08-16,0-23.87-.05-3.68-2.2-5.84-5.84-5.89-7.34-.11-14.68-.07-22,0-3,0-5.44,1.61-5.55,4.49-.32,8.39-.11,16.8-.11,25.29Zm-32,278.85c1.52,6.12,2.9,12,4.54,17.91a3.41,3.41,0,0,0,2.6,1.83c5.35.17,10.72.17,16.07,0a3.44,3.44,0,0,0,2.62-1.83c1.63-5.85,3-11.78,4.51-17.91Zm7.85,31.24c1.7,6.84,3.23,13.21,4.94,19.54a2.68,2.68,0,0,0,2.15,1.32c.91,0,2.42-.61,2.59-1.24,1.76-6.42,3.3-12.89,5-19.62Z" transform="translate(-2767.76 -301.23)"/><path d="M2993,684.56c-10.23-3.53-13.54-10.93-13.52-21.4q.27-171.4.11-342.83c0-10.05,4.71-16.68,13.32-18.63a21.57,21.57,0,0,1,4.82-.43q32.94,0,65.88,0c11.24,0,18.25,6.93,18.31,18.16q.1,20.4,0,40.8c0,4.92-3.25,7.93-7.13,6.73-3.25-1-4.13-3.52-4.11-6.73.07-13.22,0-26.44,0-39.67,0-6.32-1.73-8.06-7.94-8.06h-64c-6.22,0-7.92,1.72-7.92,8,0,10.47,0,20.94,0,32.05,3.51,0,6.82,0,10.14,0,4.16.07,6.67,2.09,6.79,5.36s-2.49,5.71-6.78,5.83c-3.22.09-6.44,0-9.9,0v33.7h13.36c1.49,0,3,0,4.49,0,3.86.14,6.3,2.2,6.42,5.37s-2.42,5.68-6.41,5.8c-4.49.13-9,0-13.48.05h-4.35v33.69c3.23,0,6.55,0,9.87,0,4.15.07,6.66,2.1,6.78,5.37s-2.5,5.68-6.79,5.83c-3,.1-6,.07-9,.13a3.5,3.5,0,0,0-.93.36v33.22h13.38c1.49,0,3,0,4.49,0,3.85.14,6.3,2.21,6.41,5.38s-2.42,5.67-6.42,5.79c-4.49.13-9,0-13.48.05h-4.35v33.69c3.25,0,6.57,0,9.89,0,4.15.07,6.66,2.11,6.77,5.38s-2.5,5.67-6.8,5.82c-3,.1-6,.08-9,.13a3.87,3.87,0,0,0-.92.37v33.21h13.39c1.5,0,3,0,4.49,0,3.85.15,6.29,2.22,6.4,5.39s-2.43,5.66-6.44,5.78c-4.48.13-9,0-13.47,0h-4.34V622.1c3.26,0,6.58,0,9.9,0,4.15.07,6.66,2.12,6.76,5.39s-2.51,5.68-6.81,5.8c-3.21.09-6.44,0-10.12,0V649c0,5.74,0,11.48,0,17.22,0,5.22,2,7.15,7.31,7.16h64.76c6,0,7.8-1.81,7.8-7.83q0-47.36,0-94.69V392.66c0-1.13,0-2.25,0-3.37.05-4.72,2.05-7.26,5.66-7.19s5.56,2.63,5.56,7.39q0,138.48,0,277c0,9.37-4.95,15-13.33,18.12Z" transform="translate(-2767.76 -301.23)"/><path d="M2798.22,419.15c0-11.22,0-22.44,0-33.66,0-4.46,2-7,5.38-7.1,3.58-.11,5.82,2.54,5.83,7.12q0,34,0,68.07c0,4.56-2.28,7.23-5.85,7.1-3.41-.12-5.36-2.65-5.37-7.12C2798.2,442.09,2798.22,430.62,2798.22,419.15Z" transform="translate(-2767.76 -301.23)"/><path d="M3052.87,616.42c0,10.85,0,21.7,0,32.55,0,4.77-3.49,7.69-7.42,6.28-2.81-1-3.82-3.26-3.81-6.2,0-21.82,0-43.64,0-65.46,0-4.06,2.25-6.44,5.71-6.36,3.27.08,5.45,2.44,5.48,6.27C3052.91,594.48,3052.87,605.45,3052.87,616.42Z" transform="translate(-2767.76 -301.23)"/><path d="M3014,340.58a16.83,16.83,0,1,1,16.93,16.81A16.86,16.86,0,0,1,3014,340.58Zm22.41.1a5.7,5.7,0,0,0-5.29-5.71,5.59,5.59,0,0,0-.62,11.16A5.69,5.69,0,0,0,3036.36,340.68Z" transform="translate(-2767.76 -301.23)"/><path d="M3052.86,550.36c0,2.11.09,4.24,0,6.35-.19,3.47-2.5,5.79-5.59,5.8s-5.47-2.34-5.56-5.79q-.18-6.54,0-13.08c.09-3.45,2.45-5.79,5.55-5.8s5.41,2.33,5.6,5.79C3053,545.87,3052.86,548.12,3052.86,550.36Z" transform="translate(-2767.76 -301.23)"/></svg>