<svg id="Calque_1" data-name="Calque 1" xmlns="http://www.w3.org/2000/svg" viewBox="0 0 383.11 369.31"><defs><style>.cls-1{fill:#fff;}</style></defs><path class="cls-1" d="M3227.88,324.8c-6.67.42-11,3.06-13,8.51q-11.49,30.4-22.72,60.89c-2.36,6.44.41,12.88,6.45,16.21,1.63.91,3.34,1.68,5,2.59,20.15,11.26,33.33,28,39.85,50.15,2.45,8.32,8.35,11.88,16.75,10.35,3.43-.62,6.87-1.21,10.31-1.82,16.92-3,33.84-6,50.75-9.12,9.21-1.69,13.53-8.4,11.35-17.53a170.16,170.16,0,0,0-36.73-72.26c-4.85-5.67-10.27-10.87-15.64-16.07a5.28,5.28,0,0,0-8,.11c-2.15,2.31-2,5.43.43,8,.77.82,1.63,1.54,2.45,2.31a162.17,162.17,0,0,1,46.43,79.62c.85,3.4-.15,4.34-3.33,4.9q-29.82,5.22-59.57,10.79c-2.95.55-4-.57-4.73-3.15q-11.71-39.36-48.4-57.92c-2.46-1.25-3.25-2.51-2.22-5.23q10.77-28.47,21.28-57c1.14-3.11,2.68-3.46,5.31-2,7.21,3.93,14.48,7.76,21.68,11.72,3.71,2,7.08,1.59,8.8-1.38s.7-6.16-2.86-8.13c-8.05-4.47-16.2-8.76-24.39-13A25.07,25.07,0,0,0,3227.88,324.8Z" transform="translate(-2950.02 -324.8)"/><path d="M2950,509.13c.95-6.75,1.69-13.55,2.9-20.26,5.92-33,20.52-61.79,43.26-86.37,27.07-29.25,60.29-47.49,99.66-54a170,170,0,0,1,80.2,5.85c7.41,2.34,11.26,9.69,8.6,17q-11.13,30.74-22.76,61.29c-2.49,6.57-8.84,9.61-15.85,7.81-22.56-5.79-44-3.33-64.2,8.46-30.32,17.69-45.92,53-38.88,87.8,6.77,33.5,35.29,60.3,69.3,64.61,29.7,3.76,54.4-6.08,74.28-28.38,1.41-1.58,3.44-3.3,5.34-3.51,1.63-.18,4.42,1.35,5,2.8a7.62,7.62,0,0,1-.75,6.39,85.45,85.45,0,0,1-23.65,21A93.5,93.5,0,0,1,3048,575c-.59-.8-1.2-1.58-2.13-2.79l-59,35.68c6.51,7.88,12.32,16,19.2,23,34.56,35.49,76.62,53.51,126.3,50.89,48.48-2.55,87.92-23.92,118.39-61.55A153.29,153.29,0,0,0,3285,536.33c1.1-12-.11-24.12-.24-36.19,0-2.81-1.24-3.65-4-3.14q-30.33,5.6-60.69,11c-2.72.48-3.29,1.81-3.08,4.41a91.48,91.48,0,0,1-5.63,40c-1.69,4.48-4.39,6.14-7.78,4.82s-4.36-4.26-2.7-8.79a83,83,0,0,0,4.82-36.76,13.14,13.14,0,0,1,10.83-14.42q31.8-5.85,63.64-11.46c8.23-1.44,14.78,3.76,15.72,12.06,8.23,72.59-25.56,139.9-90,174.35-58.51,31.27-117.41,28.79-174-5.68-39.14-23.86-64.08-59.16-76.24-103.41-.27-1-.54-1.92-.74-2.89-.66-3.19.86-6,3.65-6.87a5.52,5.52,0,0,1,7.1,3.81c1.43,4.51,2.28,9.23,4,13.6,3.43,8.54,7.29,16.9,11,25.33a10.61,10.61,0,0,0,1.2,1.67l58-35.11c-17.52-40.35-11.9-76.81,17.94-109.77L3015.74,399a154.59,154.59,0,0,0-23.19,25.5Q2958,472.18,2961.68,531c.26,4.16-1.47,6.83-4.75,7.29s-5.54-1.55-6.38-5.71a17.64,17.64,0,0,0-.53-1.75Zm144.13-78.38c1.15-.29,1.87-.45,2.57-.65a92.15,92.15,0,0,1,50.19-.94c3.16.83,4.4.1,5.48-2.89,6.82-18.71,13.82-37.36,20.74-56,1.63-4.4,1.48-4.73-3-6a161.41,161.41,0,0,0-83.85-2.4c-6.34,1.5-12.54,3.62-19,5.51,2,4.6,3.63,8.49,5.23,12.4s.66,7.2-2.52,8.54-6.06-.14-7.83-4.22-3.41-7.95-5.22-12.17a152.07,152.07,0,0,0-32.67,19.9c14.22,18.2,28.14,36,41.92,53.68l17.25-10.69c-.49-1.26-.92-2.41-1.39-3.55-3-7.11-6-14.2-9-21.35-1.23-3-.78-5.77,2.23-7.44,2.77-1.53,5.35-.88,7.25,1.68a14.27,14.27,0,0,1,1.48,3C3087.43,414.89,3090.73,422.67,3094.15,430.75Z" transform="translate(-2950.02 -324.8)"/><path d="M3227.88,324.8a25.07,25.07,0,0,1,5.21,1.56c8.19,4.2,16.34,8.49,24.39,13,3.56,2,4.51,5.27,2.86,8.13s-5.09,3.42-8.8,1.38c-7.2-4-14.47-7.79-21.68-11.72-2.63-1.44-4.17-1.09-5.31,2q-10.49,28.58-21.28,57c-1,2.72-.24,4,2.22,5.23q36.6,18.57,48.4,57.92c.77,2.58,1.78,3.7,4.73,3.15q29.76-5.55,59.57-10.79c3.18-.56,4.18-1.5,3.33-4.9a162.17,162.17,0,0,0-46.43-79.62c-.82-.77-1.68-1.49-2.45-2.31-2.43-2.61-2.58-5.73-.43-8a5.28,5.28,0,0,1,8-.11c5.37,5.2,10.79,10.4,15.64,16.07A170.16,170.16,0,0,1,3332.57,445c2.18,9.13-2.14,15.84-11.35,17.53-16.91,3.1-33.83,6.09-50.75,9.12-3.44.61-6.88,1.2-10.31,1.82-8.4,1.53-14.3-2-16.75-10.35-6.52-22.11-19.7-38.89-39.85-50.15-1.63-.91-3.34-1.68-5-2.59-6-3.33-8.81-9.77-6.45-16.21q11.19-30.51,22.72-60.89C3216.92,327.86,3221.21,325.22,3227.88,324.8Z" transform="translate(-2950.02 -324.8)"/></svg>