<svg id="Calque_1" data-name="Calque 1" xmlns="http://www.w3.org/2000/svg" viewBox="0 0 760 870"><defs><style>.cls-1{fill:#efe3d7;stroke:#efe3d7;stroke-miterlimit:10;stroke-width:4px;}</style></defs><path class="cls-1" d="M103.2,492.6c33.15-45.62,50.93-135.44,42.34-236.71-.34-4-.71-7.93-1.12-11.85,60.19,55,167.49,91.53,289.83,91.53,58.75,0,114-8.43,162.28-23.28,6.27,79.32,28.16,146.07,58.06,182.66,20.11-22,46.66-31.65,68.15-22C736,478.82,745,491,749.33,506.4c5.37,19.11,3.43,43.19-7,66.41-18.75,41.93-58,65.19-87.56,51.94-12.63-5.65-21.47-17-26-31.48-9,147.58-118.88,264.17-253.07,264.17-129.52,0-236.36-108.61-251.76-248.87a44.31,44.31,0,0,1-18.79,16.18c-29.61,13.25-68.81-10-87.57-51.94-10.13-22.63-12.23-46.08-7.34-64.95,4.14-16.09,13.35-28.85,27-34.95C58,463.65,83.38,472.24,103.2,492.6Z"/></svg>