<svg id="Calque_1" data-name="Calque 1" xmlns="http://www.w3.org/2000/svg" viewBox="0 0 760 870"><defs><style>.cls-1{fill:#efe3d7;stroke:#efe3d7;stroke-width:4px;}.cls-1,.cls-2,.cls-4{stroke-miterlimit:10;}.cls-2,.cls-3,.cls-4{fill:none;}.cls-2{stroke:#012e40;stroke-linecap:round;stroke-width:8px;}.cls-4{stroke:red;stroke-width:0.25px;}</style></defs><path class="cls-1" d="M749.33,506.4C745,491,736,478.82,722.74,472.91c-21.49-9.61-48,0-68.15,22-29.9-36.59-51.79-103.34-58.06-182.66C548.27,327.14,493,335.57,434.25,335.57,311.91,335.57,204.61,299,144.42,244c.41,3.92.78,7.88,1.12,11.85C154.13,357.16,136.35,447,103.2,492.6c-19.82-20.36-45.23-29-65.94-19.69-13.63,6.1-22.84,18.86-27,34.95-4.89,18.87-2.79,42.32,7.34,64.95,18.76,41.93,58,65.19,87.57,51.94A44.31,44.31,0,0,0,124,608.57c15.4,140.26,122.24,248.87,251.76,248.87,134.19,0,244-116.59,253.07-264.17,4.53,14.45,13.37,25.83,26,31.48,29.6,13.25,68.81-10,87.56-51.94C752.76,549.59,754.7,525.51,749.33,506.4ZM163.54,435.85c-1.32-20.77,26.6-45,65.66-55.87,41.88-11.66,80.72-3.57,86.74,18.07q.22.82.39,1.65l-53.47,12.73Zm72.53,48.93a20.41,20.41,0,1,1,20.41,20.41A20.4,20.4,0,0,1,236.07,484.78ZM373.62,704c-60.72,0-110.86-28.1-118.42-64.46H492C484.48,675.88,434.34,704,373.62,704ZM479.55,505.19A20.41,20.41,0,1,1,500,484.78,20.4,20.4,0,0,1,479.55,505.19Zm85.57-65.95L413.21,399.42c.12-.55.26-1.1.43-1.64,6.5-21.5,45.52-28.71,87.12-16.1C539.71,393.48,567.13,418.46,565.12,439.24Z"/><path class="cls-2" d="M717.68,520.34c-7.09-.33-53-6.74-69.27,46.68"/><path class="cls-2" d="M36.71,514.08c7.09-.33,50.68-4.12,67,49.29"/><polyline class="cls-2" points="391.43 594.5 346.86 594.5 346.86 534.08"/><polyline class="cls-3" points="316.79 399.71 262.86 412.43 163.54 435.85 163.38 435.89"/><line class="cls-4" x1="492.04" y1="639.52" x2="255.2" y2="639.52"/></svg>