<svg id="Calque_1" data-name="Calque 1" xmlns="http://www.w3.org/2000/svg" viewBox="0 0 760 870"><defs><style>.cls-1{fill:#5ba4a5;stroke:#5ba4a5;stroke-miterlimit:10;stroke-width:4px;}</style></defs><path class="cls-1" d="M679.83,474.3h0c-9,4.45-17.42,11.52-25.07,20.85-30-36.55-52-103.4-58.23-182.87C548.27,327.13,493,335.57,434.25,335.57,311.91,335.57,204.61,299,144.42,244q.62,5.88,1.12,11.84c8.58,101.07-9.12,190.73-42.13,236.44-13.72-13.47-28.33-21.6-43.19-23.19A329.86,329.86,0,0,1,449.41,38.74c82.15-29.15,160.26-34,215.78-14.27,29.35,10.43,52.39,27.73,66.38,52,30.27,52.43,11.26,125.4-42.73,195a331.37,331.37,0,0,1-9,202.84"/></svg>