<svg id="Calque_1" data-name="Calque 1" xmlns="http://www.w3.org/2000/svg" viewBox="0 0 760 501.54"><defs><style>.cls-1{fill:none;stroke-linecap:round;stroke-width:8px;}.cls-1,.cls-2{stroke:#012e40;stroke-miterlimit:10;}.cls-2{fill:#012e40;stroke-width:4px;}</style></defs><path class="cls-1" d="M717.68,151.88c-7.09-.33-53-6.74-69.27,46.68"/><path class="cls-1" d="M36.71,145.62c7.09-.33,50.68-4.12,67,49.29"/><path class="cls-2" d="M489.9,272.94c-9.92,34.3-58.21,60.33-116.28,60.33s-106.36-26-116.28-60.33Z"/><circle class="cls-2" cx="256.48" cy="116.32" r="18.37"/><circle class="cls-2" cx="479.55" cy="116.32" r="18.37"/><path class="cls-2" d="M165.67,65,314.14,29.67C305.8,9.86,269.08,2.58,229.73,13.5,194,23.43,167.81,45.14,165.67,65Z"/><path class="cls-2" d="M415.66,29.36,563.3,68C561.61,48.09,536,25.8,500.4,15.07,461.3,3.28,424.43,9.74,415.66,29.36Z"/><polyline class="cls-1" points="391.43 226.04 346.86 226.04 346.86 165.62"/></svg>